# This file uses centimeters as units for non-parametric coordinates.

mtllib GrassSetSmall1.mtl
g default
v 0.292531 -0.004405 1.861843
v 0.077277 -0.004405 1.651249
v -0.467431 -0.004405 2.156981
v -0.252367 -0.004405 2.367560
v 0.390283 2.489254 2.737613
v -0.106920 1.913777 2.582130
v 0.095911 1.898097 2.388166
v 0.153937 1.599708 2.425791
v -0.053080 1.624251 2.618098
v 0.034590 0.403521 1.896434
v -0.105774 0.510697 1.776888
v -0.443551 0.520791 2.080406
v -0.303579 0.415299 2.201744
v 1.288241 -0.047793 0.500103
v 0.990941 -0.047793 0.302549
v 0.468663 -0.047793 1.012106
v 0.765739 -0.047793 1.209682
v 1.855372 3.206877 1.668169
v 1.043411 2.413045 1.432556
v 1.249355 2.416190 1.170654
v 1.384493 2.247968 1.127749
v 1.175286 2.262717 1.390748
v 1.023882 1.420076 0.749349
v 0.833953 1.621787 0.641232
v 0.507851 1.640785 1.069481
v 0.697718 1.442241 1.179773
v 1.277985 -0.004405 -0.590050
v 1.018094 -0.004405 -0.437930
v 1.362336 -0.004405 0.220834
v 1.622163 -0.004405 0.068892
v 2.148545 2.489254 -0.453468
v 1.867486 1.913777 -0.014843
v 1.733855 1.898097 -0.261632
v 1.785446 1.599708 -0.307687
v 1.916375 1.624251 -0.057296
v 1.243352 0.403521 -0.332116
v 1.091031 0.510697 -0.228232
v 1.294765 0.520791 0.177611
v 1.448711 0.415299 0.074579
vt 0.572820 0.515694
vt 0.641578 0.517404
vt 0.608972 0.753405
vt 0.567161 0.750748
vt 0.537293 0.428425
vt 0.648901 0.428425
vt 0.534660 0.850902
vt 0.415923 0.628462
vt 0.484825 0.626467
vt 0.480687 0.829126
vt 0.438265 0.833284
vt 0.416886 0.557356
vt 0.528525 0.557356
vt 0.505385 0.979833
vt 0.391144 0.557356
vt 0.398467 0.646335
vt 0.431073 0.882336
vt 0.293179 0.829894
vt 0.378858 0.922211
vt 0.343181 0.958648
vt 0.257500 0.866363
vt 0.140846 0.848690
vt 0.052323 0.968907
vt 0.001992 0.935434
vt 0.090477 0.815220
vt 0.192389 0.829894
vt 0.250700 0.941533
vt 0.206680 0.967275
vt 0.148358 0.855667
vt 0.913772 0.753405
vt 0.922893 0.704353
vt 0.998008 0.850902
vt 0.856739 0.517404
vt 0.880453 0.499531
vt 0.957966 0.700195
vt 0.852693 0.428425
vt 0.889130 0.428425
vt 0.937746 0.497536
vt 0.981447 0.428425
vt 0.096058 0.304677
vt 0.063880 0.270503
vt 0.134258 0.135915
vt 0.157153 0.164415
vt 0.140846 0.553364
vt 0.090477 0.553364
vt 0.236929 0.001956
vt 0.001992 0.553364
vt 0.008631 0.267284
vt 0.250496 0.288036
vt 0.282664 0.254399
vt 0.363574 0.393404
vt 0.341231 0.418873
vt 0.243857 0.001956
vt 0.294188 0.001956
vt 0.337923 0.250643
vt 0.399018 0.390905
vt 0.478794 0.553364
vt 0.382710 0.001956
vt 0.693200 0.781791
vt 0.667393 0.763634
vt 0.776301 0.528579
vt 0.785042 0.579132
vt 0.699067 0.850902
vt 0.655036 0.850902
vt 0.846558 0.428425
vt 0.099576 0.575228
vt 0.125657 0.557356
vt 0.204889 0.762177
vt 0.196607 0.811229
vt 0.628040 0.071067
vt 0.648294 0.089225
vt 0.544731 0.324279
vt 0.538356 0.273726
vt 0.633901 0.001956
vt 0.669580 0.001956
vt 0.485527 0.424433
vt 0.697810 0.089225
vt 0.749233 0.090935
vt 0.834235 0.326936
vt 0.801374 0.324279
vt 0.676524 0.001956
vt 0.762206 0.001956
vt 0.860577 0.424433
vt 0.211025 0.557356
vt 0.283579 0.560574
vt 0.345091 0.691411
vt 0.300720 0.691944
vt 0.385009 0.825903
vn 0.000000 -1.000000 -0.000000
vn 0.000000 -1.000000 -0.000000
vn 0.000000 -1.000000 -0.000000
vn 0.000000 -1.000000 -0.000000
vn 0.753314 0.277381 -0.596304
vn 0.776243 0.215361 -0.592509
vn 0.755852 0.102765 -0.646628
vn 0.788631 0.152695 -0.595606
vn -0.658511 0.191020 -0.727925
vn -0.651934 0.230579 -0.722368
vn -0.601770 0.426128 -0.675491
vn -0.602418 0.424199 -0.676127
vn -0.710341 -0.030267 0.703206
vn -0.695855 0.024726 0.717757
vn -0.694966 -0.069121 0.715712
vn -0.530676 -0.007742 0.847539
vn 0.662294 -0.115780 0.740244
vn 0.668074 -0.042253 0.742894
vn 0.610197 -0.375067 0.697843
vn 0.609596 -0.376341 0.697682
vn -0.521676 0.611463 -0.594952
vn 0.718450 0.052254 -0.693614
vn 0.597154 -0.401981 0.694131
vn -0.351203 0.050836 0.934918
vn 0.680739 0.428384 -0.594206
vn 0.680739 0.428384 -0.594206
vn -0.674698 -0.068572 -0.734902
vn -0.674698 -0.068572 -0.734902
vn -0.644891 0.172352 0.744587
vn -0.644891 0.172352 0.744587
vn 0.636890 0.347056 0.688421
vn 0.636889 0.347056 0.688421
vn 0.000000 -1.000000 -0.000000
vn 0.000000 -1.000000 -0.000000
vn 0.000000 -1.000000 -0.000000
vn 0.000000 -1.000000 -0.000000
vn 0.555673 0.232111 -0.798344
vn 0.523622 0.240416 -0.817325
vn 0.352926 0.322969 -0.878143
vn 0.413160 0.286299 -0.864483
vn -0.785042 0.179913 -0.592740
vn -0.778328 0.216097 -0.589497
vn -0.592824 0.655326 -0.468089
vn -0.591789 0.657102 -0.466907
vn -0.442807 -0.066911 0.894117
vn -0.493427 -0.038356 0.868941
vn -0.253704 -0.165279 0.953057
vn -0.207349 -0.187811 0.960070
vn 0.790016 -0.120834 0.601060
vn 0.793273 -0.095262 0.601368
vn 0.646242 -0.546542 0.532601
vn 0.646141 -0.546694 0.532567
vn -0.562381 0.703969 -0.433769
vn 0.212663 0.398404 -0.892216
vn 0.612770 -0.594400 0.520771
vn -0.009457 -0.275622 0.961220
vn 0.582892 0.224612 -0.780889
vn 0.582892 0.224612 -0.780889
vn -0.800619 0.042404 -0.597672
vn -0.800618 0.042404 -0.597672
vn -0.537895 -0.012163 0.842924
vn -0.537895 -0.012163 0.842924
vn 0.801717 0.045899 0.595939
vn 0.801717 0.045899 0.595939
vn -0.000000 -1.000000 -0.000000
vn -0.000000 -1.000000 -0.000000
vn -0.000000 -1.000000 -0.000000
vn -0.000000 -1.000000 -0.000000
vn -0.376615 0.277380 -0.883867
vn -0.366910 0.215361 -0.904985
vn -0.424492 0.102766 -0.899581
vn -0.366632 0.152695 -0.917750
vn -0.875776 0.191020 0.443315
vn -0.868682 0.230579 0.438436
vn -0.810238 0.426128 0.402404
vn -0.811022 0.424199 0.402862
vn 0.491063 -0.030266 0.870598
vn 0.508918 0.024727 0.860460
vn 0.507180 -0.069121 0.859064
vn 0.677656 -0.007742 0.735339
vn 0.888656 -0.115779 -0.443717
vn 0.892737 -0.042253 -0.448594
vn 0.834021 -0.375067 -0.404641
vn 0.833708 -0.376341 -0.404103
vn -0.711433 0.611463 0.346376
vn -0.479677 0.052255 -0.875888
vn 0.827002 -0.401981 -0.393038
vn 0.809258 0.050837 0.585249
vn -0.393723 0.428383 -0.813308
vn -0.393723 0.428383 -0.813308
vn -0.886773 -0.068572 0.457090
vn -0.886773 -0.068572 0.457090
vn 0.548235 0.172352 0.818372
vn 0.548235 0.172352 0.818372
vn 0.831969 0.347056 -0.432873
vn 0.831969 0.347056 -0.432873
s off
g GrassSetSmall1 Done
usemtl initialShadingGroup
f 1/18/1 4/19/2 3/20/3 2/21/4
s 1
f 10/70/5 11/71/6 7/72/7 8/73/8
s 2
f 11/77/9 12/78/10 6/79/11 7/80/12
s 3
f 12/33/13 13/34/14 9/31/15 6/30/16
s 4
f 13/34/17 10/38/18 8/35/19 9/31/20
s 2
f 7/80/12 6/79/11 5/83/21
s 1
f 8/73/8 7/72/7 5/76/22
s 4
f 9/31/20 8/35/19 5/32/23
s 3
f 6/30/16 9/31/15 5/32/24
s 1
f 1/74/25 2/75/26 11/71/6 10/70/5
s 2
f 2/81/27 3/82/28 12/78/10 11/77/9
s 3
f 3/36/29 4/37/30 13/34/14 12/33/13
s 4
f 4/37/31 1/39/32 10/38/18 13/34/17
s off
f 14/22/33 17/23/34 16/24/35 15/25/36
s 5
f 23/40/37 24/41/38 20/42/39 21/43/40
s 6
f 24/84/41 25/85/42 19/86/43 20/87/44
s 7
f 25/49/45 26/50/46 22/51/47 19/52/48
s 8
f 26/50/49 23/55/50 21/56/51 22/51/52
s 6
f 20/87/44 19/86/43 18/88/53
s 5
f 21/43/40 20/42/39 18/46/54
s 8
f 22/51/52 21/56/51 18/57/55
s 7
f 19/52/48 22/51/47 18/57/56
s 5
f 14/44/57 15/45/58 24/41/38 23/40/37
s 6
f 15/45/59 16/47/60 25/48/42 24/41/41
s 7
f 16/53/61 17/54/62 26/50/46 25/49/45
s 8
f 17/54/63 14/58/64 23/55/50 26/50/49
s off
f 27/26/65 30/27/66 29/28/67 28/29/68
s 9
f 36/59/69 37/60/70 33/61/71 34/62/72
s 10
f 37/1/73 38/2/74 32/3/75 33/4/76
s 11
f 38/66/77 39/67/78 35/68/79 32/69/80
s 12
f 39/8/81 36/9/82 34/10/83 35/11/84
s 10
f 33/4/76 32/3/75 31/7/85
s 9
f 34/62/72 33/61/71 31/65/86
s 12
f 35/11/84 34/10/83 31/14/87
s 11
f 32/17/80 35/11/79 31/14/88
s 9
f 27/63/89 28/64/90 37/60/70 36/59/69
s 10
f 28/5/91 29/6/92 38/2/74 37/1/73
s 11
f 29/15/93 30/12/94 39/8/78 38/16/77
s 12
f 30/12/95 27/13/96 36/9/82 39/8/81
