# This file uses centimeters as units for non-parametric coordinates.

mtllib Stone1.mtl
g default
v -0.997543 0.152885 -0.631875
v -0.275251 0.086873 0.722267
v -0.002175 0.080574 -0.732049
v -0.626121 0.496829 -1.437764
v -1.183568 1.228640 -0.625078
v -0.856827 1.067701 0.512603
v -0.144242 0.906377 1.157848
v 0.509006 0.544519 0.249359
v 0.415724 0.699844 -1.038929
v 0.036671 1.816392 -0.856872
v -0.941634 1.771620 0.186607
v 0.452358 1.225711 0.085545
v -0.304284 -0.033027 -0.776666
v -0.098492 0.014550 -0.088799
v -0.621844 0.028637 -0.083559
v -0.304717 -0.009290 -0.471492
v -1.014148 0.191238 -1.036074
v -0.147973 0.044436 -1.120339
v -0.518549 0.133982 -0.879876
v -1.315754 0.693638 -0.609811
v -0.984314 1.098757 -1.066793
v -1.231119 0.649137 -1.255213
v -1.122224 0.552898 0.320373
v -1.159476 1.101710 0.042447
v -1.355697 0.825470 -0.066747
v -0.701420 0.402132 1.025218
v -0.892767 0.248604 0.566779
v 0.248261 0.096461 -0.116022
v 0.227057 0.169198 0.623522
v 0.087197 0.055640 0.237456
v 0.094014 0.819566 -1.172553
v 0.346428 0.428937 -1.049800
v 0.136419 0.506434 -0.966131
v -0.797058 1.584620 -0.933364
v -0.054098 1.664531 -1.170273
v -0.780850 1.439801 -1.110711
v -1.115603 1.287891 0.502457
v -1.404387 1.377789 -0.213463
v -1.310753 1.224939 0.134193
v -0.064635 0.681500 0.863193
v -0.792800 0.919952 0.939028
v -0.379683 0.705735 1.094107
v 0.571919 0.979017 0.726031
v 0.333336 0.639646 0.819311
v 0.634434 0.670387 -0.504604
v 0.573614 0.425562 -0.599811
v 0.408913 1.499451 -0.764963
v 0.199532 1.608098 -0.932713
v -0.637704 1.765837 -0.443328
v -0.985609 1.622434 -0.647866
v -0.520803 1.437179 0.661281
v -0.821282 1.244012 0.710073
v 0.853164 1.092291 0.122008
v 0.531295 1.489663 0.623915
v 0.706506 1.157733 0.521265
v 0.524921 1.022020 -0.182464
v 0.680524 0.966766 -0.343642
v 0.261903 1.493182 -0.355026
v 0.475031 1.403512 -0.643828
v -0.398487 1.885869 0.096690
v -0.431057 1.921967 -0.275476
v -0.367169 1.741269 0.517400
vt 0.750630 0.577448
vt 0.870518 0.602948
vt 0.863855 0.688802
vt 0.779232 0.662611
vt 0.788065 0.390799
vt 0.730861 0.510889
vt 0.985381 0.594816
vt 0.929948 0.631715
vt 0.914328 0.471869
vt 0.825380 0.364688
vt 0.959640 0.503374
vt 0.864169 0.350507
vt 0.967853 0.444572
vt 0.994496 0.485596
vt 0.998008 0.571504
vt 0.749396 0.246039
vt 0.732785 0.207673
vt 0.814772 0.129075
vt 0.786896 0.205588
vt 0.632339 0.283190
vt 0.703184 0.298582
vt 0.718682 0.094759
vt 0.780196 0.084006
vt 0.805800 0.102478
vt 0.864314 0.206525
vt 0.847052 0.297586
vt 0.577128 0.212677
vt 0.593990 0.276144
vt 0.772740 0.346515
vt 0.662983 0.073840
vt 0.733527 0.001864
vt 0.813009 0.043485
vt 0.901081 0.137264
vt 0.907445 0.203604
vt 0.650172 0.051525
vt 0.841036 0.062240
vt 0.899091 0.074529
vt 0.292393 0.284752
vt 0.299988 0.232390
vt 0.412580 0.252157
vt 0.345760 0.281781
vt 0.232163 0.255702
vt 0.274371 0.292601
vt 0.407602 0.197857
vt 0.469531 0.223169
vt 0.554502 0.265762
vt 0.413759 0.317817
vt 0.317986 0.351814
vt 0.247278 0.349688
vt 0.244065 0.146482
vt 0.322659 0.117338
vt 0.471165 0.110962
vt 0.536933 0.191450
vt 0.245803 0.105458
vt 0.339164 0.080437
vt 0.554303 0.051049
vt 0.570902 0.121893
vt 0.448454 0.001864
vt 0.367155 0.039275
vt 0.518333 0.012699
vt 0.292706 0.404573
vt 0.289714 0.484965
vt 0.212412 0.494901
vt 0.179795 0.409738
vt 0.406520 0.473490
vt 0.387652 0.415435
vt 0.235424 0.576659
vt 0.204465 0.561460
vt 0.248266 0.711443
vt 0.193567 0.681550
vt 0.320970 0.618977
vt 0.285440 0.557081
vt 0.336082 0.702472
vt 0.350149 0.664182
vt 0.431306 0.580999
vt 0.415246 0.664355
vt 0.034816 0.682090
vt 0.114298 0.737654
vt 0.007814 0.807207
vt 0.001992 0.746374
vt 0.152276 0.847991
vt 0.090380 0.883520
vt 0.109958 0.933536
vt 0.018264 0.879246
vt 0.102976 0.362147
vt 0.096074 0.291438
vt 0.203354 0.287671
vt 0.187599 0.400582
vt 0.162314 0.125004
vt 0.225049 0.192725
vt 0.035569 0.195666
vt 0.095974 0.081878
vt 0.001992 0.054923
vt 0.093052 0.001863
vt 0.173660 0.606060
vt 0.128304 0.678099
vt 0.109118 0.561293
vt 0.142899 0.545226
vt 0.068880 0.479197
vt 0.127874 0.480943
vt 0.042284 0.404573
vt 0.087352 0.444758
vt 0.515231 0.669412
vt 0.506449 0.614713
vt 0.591336 0.598678
vt 0.552546 0.627963
vt 0.574722 0.526897
vt 0.611514 0.577479
vt 0.631703 0.449807
vt 0.666508 0.496626
vt 0.695019 0.646223
vt 0.445945 0.447733
vt 0.437441 0.512830
vt 0.696363 0.443572
vt 0.692055 0.524872
vt 0.724726 0.552862
vt 0.607097 0.355805
vt 0.468260 0.374094
vt 0.670564 0.373693
vn -0.378985 -0.918293 0.114494
vn -0.211361 -0.968033 -0.135053
vn -0.067475 -0.991985 -0.106829
vn -0.045157 -0.998930 0.009964
vn 0.406645 -0.896449 -0.176122
vn 0.084641 -0.995358 0.045815
vn -0.167904 -0.959709 0.225317
vn -0.191960 -0.879271 -0.435928
vn -0.178428 -0.893390 -0.412332
vn -0.191738 -0.839226 -0.508858
vn -0.146815 -0.889299 -0.433119
vn -0.875656 -0.479913 -0.053945
vn -0.812095 -0.581203 0.052002
vn -0.857188 -0.513232 0.042684
vn -0.875656 -0.479913 -0.053945
vn -0.906271 0.386672 -0.170757
vn -0.864940 0.388575 -0.317629
vn -0.846772 0.402304 -0.348034
vn -0.874725 0.387800 -0.290633
vn -0.277424 0.213773 -0.936663
vn -0.283861 0.146472 -0.947612
vn -0.294029 -0.022677 -0.955528
vn -0.294029 -0.022677 -0.955528
vn -0.743565 -0.659598 0.109729
vn -0.843169 -0.529123 0.095368
vn -0.826644 0.138169 0.545499
vn -0.841918 0.047275 0.537530
vn -0.782986 0.237911 0.574745
vn -0.782986 0.237911 0.574745
vn -0.926291 0.376562 -0.013653
vn -0.926291 0.376562 -0.013653
vn -0.470352 -0.854675 0.219771
vn -0.309151 -0.907746 0.283590
vn -0.828615 0.034430 0.558759
vn -0.849564 0.071840 0.522570
vn 0.124200 -0.979920 0.155983
vn 0.146680 -0.982679 0.113255
vn 0.382405 -0.913778 -0.137026
vn 0.821490 -0.558533 0.114871
vn 0.859998 -0.480458 0.171941
vn 0.814960 -0.540910 0.207982
vn 0.753313 -0.652050 0.085731
vn 0.512375 -0.535688 -0.671201
vn 0.512375 -0.535688 -0.671201
vn 0.519906 -0.278614 -0.807510
vn 0.520309 -0.286430 -0.804510
vn 0.486823 -0.081814 -0.869661
vn 0.492117 0.033651 -0.869878
vn -0.028193 -0.316208 -0.948271
vn -0.028193 -0.316208 -0.948271
vn -0.028193 -0.316208 -0.948271
vn -0.028193 -0.316208 -0.948271
vn -0.270251 0.275608 -0.922499
vn -0.270251 0.275608 -0.922499
vn -0.774312 0.401586 -0.489050
vn -0.778637 0.426489 -0.460252
vn -0.237931 0.903961 -0.355308
vn -0.239605 0.889303 -0.389526
vn -0.242373 0.846120 -0.474696
vn -0.242373 0.846120 -0.474696
vn -0.685796 -0.718102 -0.118377
vn -0.685796 -0.718102 -0.118377
vn -0.650841 -0.754362 0.085698
vn -0.644482 -0.756545 0.110830
vn -0.557107 -0.749949 0.356662
vn -0.557107 -0.749949 0.356662
vn -0.783682 0.492901 0.378010
vn -0.783682 0.492901 0.378010
vn -0.783682 0.492901 0.378010
vn -0.783682 0.492901 0.378010
vn -0.798990 -0.066127 0.597697
vn -0.783125 -0.034854 0.620887
vn 0.393499 -0.423781 0.815824
vn 0.284708 -0.387453 0.876825
vn 0.280909 -0.384477 0.879357
vn 0.281625 -0.395547 0.874202
vn 0.202260 -0.363875 0.909223
vn 0.000078 -0.302859 0.953036
vn 0.162031 -0.340960 0.926009
vn 0.267887 -0.374662 0.887618
vn 0.852219 -0.410767 0.324027
vn 0.852595 -0.404896 0.330364
vn 0.368792 -0.402864 0.837671
vn 0.538587 -0.810056 -0.231804
vn 0.538587 -0.810056 -0.231804
vn 0.899847 -0.142206 -0.412376
vn 0.899847 -0.142206 -0.412375
vn 0.899847 -0.142206 -0.412375
vn 0.899847 -0.142206 -0.412375
vn 0.884072 -0.462620 0.066332
vn 0.861849 -0.489117 0.134092
vn 0.440057 0.079551 -0.894439
vn 0.483385 0.133380 -0.865187
vn 0.619825 0.646556 -0.444727
vn 0.619825 0.646556 -0.444727
vn 0.619825 0.646556 -0.444727
vn 0.619825 0.646556 -0.444727
vn 0.552335 0.225331 -0.802591
vn 0.552335 0.225331 -0.802591
vn -0.762807 0.352076 -0.542372
vn -0.762807 0.352076 -0.542372
vn -0.478516 0.868397 -0.130034
vn -0.438525 0.891843 -0.110961
vn -0.357440 0.917548 -0.174190
vn -0.387819 0.902838 -0.185688
vn -0.869503 -0.280243 0.406729
vn -0.869503 -0.280243 0.406728
vn -0.247389 0.556150 0.793408
vn -0.068284 0.598015 0.798571
vn -0.134579 0.630846 0.764148
vn -0.293437 0.587959 0.753789
vn -0.311383 0.712207 0.629128
vn -0.343928 0.620649 0.704633
vn 0.546577 0.205807 0.811725
vn 0.546577 0.205807 0.811725
vn 0.546577 0.205807 0.811725
vn 0.546577 0.205807 0.811725
vn 0.896986 -0.423855 0.125551
vn 0.851854 -0.415670 0.318690
vn 0.450180 0.835911 -0.313993
vn 0.561157 0.823416 -0.084194
vn 0.490572 0.853620 -0.175135
vn 0.595996 0.770089 -0.227490
vn 0.907667 -0.418209 -0.035254
vn 0.616237 0.627690 -0.475665
vn 0.616237 0.627690 -0.475665
vn 0.321797 0.834004 -0.448201
vn 0.493042 0.731448 -0.471056
vn 0.983374 0.018548 -0.180642
vn 0.983374 0.018548 -0.180642
vn 0.983374 0.018548 -0.180642
vn 0.983374 0.018548 -0.180642
vn 0.606120 0.761691 0.229012
vn 0.353056 0.931184 0.090821
vn 0.595821 0.790558 0.141475
vn 0.725418 0.659653 0.196537
vn 0.837740 0.523972 0.153770
vn 0.284644 0.957042 0.055206
vn 0.446219 0.888956 0.103179
vn -0.332898 0.940943 -0.061681
vn -0.332898 0.940943 -0.061681
vn 0.528398 0.848979 -0.005505
vn -0.280749 0.780096 0.559133
vn -0.102122 0.681482 0.724674
vn -0.002155 0.608286 0.793715
vn 0.463036 0.871469 -0.161679
s 1
g Stone1 Done
usemtl initialShadingGroup
f 15/47/1 1/48/2 13/38/3 16/41/4
f 13/38/3 3/39/5 14/40/6 16/41/4
f 14/40/6 2/46/7 15/47/1 16/41/4
f 13/38/3 1/48/2 17/49/8 19/43/9
f 17/3/8 4/2/10 18/7/11 19/8/9
f 18/42/11 3/39/5 13/38/3 19/43/9
f 17/85/12 1/86/13 20/87/14 22/88/15
s 3
f 20/61/16 5/62/17 21/63/18 22/64/19
s 4
f 21/1/20 4/2/21 17/3/22 22/4/23
s 1
f 20/87/14 1/86/13 23/89/24 25/90/25
s 5
f 23/33/26 6/24/27 24/36/28 25/37/29
s 3
f 24/65/30 5/62/17 20/61/16 25/66/31
s 1
f 23/89/24 1/86/13 15/91/1 27/92/32
f 15/91/1 2/93/7 26/94/33 27/92/32
s 5
f 26/25/34 6/24/27 23/33/26 27/34/35
s 1
f 29/53/36 2/46/7 14/40/6 30/45/37
f 14/40/6 3/39/5 28/44/38 30/45/37
s 6
f 28/44/39 8/52/40 29/53/41 30/45/42
s 7
f 32/14/43 3/15/44 18/7/45 33/11/46
f 18/7/45 4/2/47 31/9/48 33/11/46
s off
f 31/9/49 9/13/50 32/14/51 33/11/52
s 4
f 35/5/53 4/2/21 21/1/20 36/6/54
s 3
f 21/63/18 5/62/17 34/67/55 36/68/56
s 8
f 34/67/57 10/69/58 35/70/59 36/68/60
s 9
f 38/95/61 5/96/62 24/97/63 39/98/64
f 24/97/63 6/99/65 37/100/66 39/98/64
s off
f 37/77/67 11/78/68 38/79/69 39/80/70
s 5
f 41/18/71 6/24/27 26/25/34 42/19/72
s 10
f 26/25/73 2/26/74 40/16/75 42/19/76
f 40/16/75 7/17/77 41/18/78 42/19/76
f 40/16/75 2/26/74 29/29/79 44/21/80
s 6
f 29/53/41 8/52/40 43/56/81 44/57/82
s 10
f 43/20/83 7/17/77 40/16/75 44/21/80
s 1
f 28/44/38 3/39/5 32/50/84 46/51/85
s off
f 32/50/86 9/54/87 45/55/88 46/51/89
s 6
f 45/55/90 8/52/40 28/44/39 46/51/91
s 7
f 31/9/48 4/2/47 35/5/92 48/10/93
s off
f 35/103/94 10/104/95 47/105/96 48/106/97
s 7
f 47/12/98 9/13/99 31/9/48 48/10/93
s 3
f 34/83/55 5/84/17 38/79/100 50/82/101
s 8
f 38/79/102 11/78/103 49/81/104 50/82/105
f 49/71/104 10/69/58 34/67/57 50/72/105
s 5
f 37/100/106 6/99/27 41/101/71 52/102/107
s 12
f 41/18/108 7/17/109 51/22/110 52/23/111
f 51/22/110 11/31/112 37/32/113 52/23/111
s off
f 54/27/114 7/17/115 43/20/116 55/28/117
s 6
f 43/56/81 8/52/40 53/58/118 55/60/119
s 13
f 53/114/120 12/109/121 54/117/122 55/119/123
s 6
f 53/58/118 8/52/40 45/55/90 57/59/124
s 13
f 45/116/125 9/111/126 56/110/127 57/115/128
f 56/110/127 12/109/121 53/114/120 57/115/128
s off
f 56/110/129 9/111/130 47/105/131 59/108/132
s 13
f 47/105/133 10/104/134 58/107/135 59/108/136
f 58/107/135 12/109/121 56/110/137 59/108/136
f 58/73/135 10/69/134 49/71/138 61/74/139
s 8
f 49/71/104 11/75/103 60/76/140 61/74/141
s 13
f 60/112/142 12/109/121 58/107/135 61/113/139
s 12
f 60/35/143 11/31/112 51/22/110 62/30/144
f 51/22/110 7/17/109 54/27/145 62/30/144
s 13
f 54/117/122 12/109/121 60/112/142 62/118/146
