# This file uses centimeters as units for non-parametric coordinates.

mtllib StoneSmall2.mtl
g default
v -1.521044 0.165960 -1.230485
v -1.435980 0.234571 -0.927471
v -1.624822 0.397216 -1.153528
v -1.794920 0.269502 -1.231488
v -1.757377 0.061659 -1.149130
v -1.507418 0.054078 -0.924940
v -1.447306 0.130019 -0.731953
v -1.477256 0.350105 -0.738450
v -1.783827 0.401422 -0.823660
v -1.878982 0.160236 -0.820640
v -1.619198 -0.009595 -0.733911
v -1.579034 0.181752 -0.565755
vt 0.484115 0.001973
vt 0.560874 0.257065
vt 0.398027 0.257291
vt 0.631855 0.068252
vt 0.473900 0.420071
vt 0.329187 0.068417
vt 0.636467 0.416514
vt 0.312071 0.416544
vt 0.472091 0.559473
vt 0.153410 0.560355
vt 0.038264 0.217037
vt 0.255772 0.217037
vt 0.001992 0.493029
vt 0.144895 0.001973
vt 0.304660 0.493193
vt 0.966186 0.304381
vt 0.768760 0.493194
vt 0.898410 0.144932
vt 0.643392 0.217038
vt 0.870820 0.001973
vt 0.868250 0.497185
vt 0.998008 0.845312
vt 0.743014 0.773176
vt 0.970442 0.988241
vt 0.736878 0.711206
vt 0.491295 0.714714
vt 0.584706 0.563465
vt 0.584576 0.866132
vn 0.812499 0.476417 -0.335964
vn 0.801954 0.518323 -0.297004
vn 0.785682 0.566378 -0.248836
vn 0.143146 0.369742 -0.918041
vn 0.143146 0.369742 -0.918041
vn 0.143146 0.369742 -0.918041
vn -0.142902 -0.386808 -0.911021
vn -0.142902 -0.386808 -0.911021
vn -0.142902 -0.386808 -0.911021
vn 0.278756 -0.897725 -0.341151
vn 0.207049 -0.942397 -0.262713
vn 0.245831 -0.920012 -0.305196
vn 0.914752 -0.364502 -0.174263
vn 0.916569 -0.365066 -0.163178
vn 0.916660 -0.365094 -0.162608
vn 0.767506 0.607757 -0.203880
vn -0.503870 0.825772 -0.253408
vn -0.503870 0.825772 -0.253408
vn -0.503870 0.825772 -0.253408
vn -0.926350 -0.270993 -0.261609
vn -0.926350 -0.270993 -0.261609
vn -0.926350 -0.270993 -0.261609
vn 0.169202 -0.960455 -0.221127
vn 0.919651 -0.365995 -0.142440
vn 0.981887 0.137468 0.130388
vn 0.920058 0.136050 0.367401
vn 0.905435 0.135094 0.402414
vn 0.148794 0.987098 0.059136
vn 0.148794 0.987098 0.059136
vn 0.148794 0.987098 0.059136
vn -0.926614 0.364415 -0.092673
vn -0.926614 0.364415 -0.092673
vn -0.926614 0.364415 -0.092673
vn -0.556672 -0.829624 0.042885
vn -0.556672 -0.829624 0.042885
vn -0.556672 -0.829624 0.042885
vn 0.625963 -0.772213 0.108888
vn 0.625963 -0.772213 0.108888
vn 0.625963 -0.772213 0.108888
vn 0.796155 0.125815 0.591868
vn -0.065272 0.733479 0.676571
vn -0.065272 0.733479 0.676571
vn -0.065272 0.733479 0.676571
vn -0.636033 0.260030 0.726531
vn -0.636033 0.260030 0.726530
vn -0.636033 0.260030 0.726530
vn -0.545541 -0.485704 0.682991
vn -0.545541 -0.485704 0.682991
vn -0.545541 -0.485704 0.682991
vn 0.503051 -0.627686 0.594097
vn 0.503051 -0.627686 0.594096
vn 0.503051 -0.627686 0.594096
s 1
g StoneSmall2 Done
usemtl initialShadingGroup
f 1/1/1 3/4/2 2/2/3
s off
f 1/25/4 4/26/5 3/27/6
f 1/25/7 5/28/8 4/26/9
s 2
f 1/1/10 6/3/11 5/6/12
s 3
f 1/1/13 2/2/14 6/3/15
s 1
f 2/16/3 3/17/2 8/18/16
s off
f 3/15/17 4/10/18 9/12/19
f 4/10/20 5/13/21 10/11/22
s 2
f 5/6/12 6/3/11 11/8/23
s 3
f 6/3/15 2/2/14 7/5/24
s 4
f 2/2/25 8/7/26 7/5/27
s off
f 3/17/28 9/19/29 8/18/30
f 4/10/31 10/11/32 9/12/33
f 5/21/34 11/22/35 10/23/36
f 6/3/37 7/5/38 11/8/39
s 4
f 7/5/27 8/7/26 12/9/40
s off
f 8/18/41 9/19/42 12/20/43
f 9/12/44 10/11/45 12/14/46
f 10/23/47 11/22/48 12/24/49
f 11/8/50 7/5/51 12/9/52
