# This file uses centimeters as units for non-parametric coordinates.

mtllib StoneSet1.mtl
g default
v -0.542322 0.865354 -1.060366
v 0.810077 1.505156 -0.500030
v -0.644349 1.776597 -0.415783
v -1.350225 0.863986 -0.557376
v -0.879900 -0.009604 -0.508766
v 0.820072 0.171061 -0.458396
v 1.241351 0.997565 0.458648
v 0.333421 1.597909 0.316615
v -0.955003 1.420464 0.348083
v -0.966988 0.246717 0.913749
v 0.276393 0.055241 0.499219
v 0.016605 0.873283 0.905731
v -0.688355 1.492514 -0.934457
v -0.000792 1.690036 -0.675309
v 0.004673 1.169545 -0.863057
v -0.383276 1.488892 -0.847533
v -0.946573 0.825894 -1.048212
v -1.032983 1.520674 -0.510881
v -0.791676 1.203758 -0.721836
v -0.520786 0.252023 -0.928004
v -1.321845 0.220920 -0.451957
v -1.166311 0.342093 -0.898474
v 0.409202 0.486655 -0.877283
v 0.129904 0.057734 -0.533999
v 0.022034 0.127992 -0.865906
v 1.113214 0.882629 -0.667081
v 0.655756 0.865928 -0.913666
v -0.029979 1.750839 -0.180175
v 0.709425 1.682971 -0.143542
v 0.325198 1.868511 -0.444886
v -1.182500 0.945640 0.347125
v -0.964937 1.572787 0.113542
v -1.222873 1.415860 -0.028467
v -1.190282 -0.009604 0.015462
v -1.279710 0.296928 0.742852
v -1.367283 0.107900 -0.071432
v 0.587785 0.058880 0.000000
v -0.135866 -0.061712 -0.001125
v 0.220268 -0.027021 -0.187661
v 0.948565 1.108533 -0.010079
v 1.024400 0.548208 -0.010079
v 1.180336 0.877275 -0.224474
v 0.808729 1.320930 0.659147
v 0.903627 1.408929 0.254120
v -0.421245 1.590298 0.491133
v -0.515610 1.729179 0.280160
v -0.875316 0.732025 0.973206
v -1.042745 0.510262 0.892129
v -0.360688 0.031079 0.671531
v -0.604623 -0.009604 0.235044
v 0.744458 0.352023 0.539278
v 0.794654 0.290547 0.187592
v 0.203579 1.428143 0.940344
v 0.705352 0.917799 0.974797
v 0.603087 1.280651 0.878397
v -0.576401 1.062607 0.860375
v -0.261221 1.403518 0.726462
v -0.424127 0.547515 0.945081
v -0.713309 0.757859 1.039948
v 0.184573 0.339164 0.975772
v -0.187592 0.290547 0.974784
v 0.605579 0.466743 0.902528
v 1.331991 0.168672 -0.385277
v 1.434857 0.251641 -0.018848
v 1.206494 0.448325 -0.292215
v 1.000798 0.293883 -0.386490
v 1.046199 0.042543 -0.286896
v 1.348468 0.033376 -0.015788
v 1.421161 0.125209 0.217587
v 1.384943 0.391355 0.209730
v 1.014213 0.453412 0.106688
v 0.899144 0.161749 0.110339
v 1.213295 -0.043623 0.215220
v 1.261865 0.187768 0.418567
v 0.380688 0.599460 1.499499
v 0.596788 0.267611 1.449077
v 0.161107 0.260409 1.877725
v -0.296370 0.490269 1.743241
v -0.130846 0.623872 1.258171
v 0.439708 0.463167 1.115735
v 0.748744 0.205831 1.062389
v 0.514805 -0.039579 1.549850
v -0.169050 -0.056541 1.690630
v -0.378858 0.204657 1.245395
v 0.201893 0.349977 0.885818
v 0.297606 -0.016540 1.138722
vt 0.893369 0.268570
vt 0.775362 0.276925
vt 0.790036 0.114387
vt 0.874534 0.181881
vt 0.768517 0.365128
vt 0.836419 0.306479
vt 0.673462 0.043275
vt 0.711798 0.016450
vt 0.875361 0.114215
vt 0.902733 0.156362
vt 0.939358 0.251481
vt 0.659804 0.257981
vt 0.681578 0.338220
vt 0.888308 0.344686
vt 0.775608 0.367312
vt 0.639494 0.189601
vt 0.751649 0.001881
vt 0.194990 0.533564
vt 0.127217 0.453002
vt 0.255085 0.415501
vt 0.254123 0.495037
vt 0.107058 0.535375
vt 0.148689 0.569085
vt 0.366953 0.445520
vt 0.295680 0.533564
vt 0.275739 0.617794
vt 0.159736 0.632283
vt 0.106405 0.625084
vt 0.398906 0.509580
vt 0.349661 0.581040
vt 0.333848 0.653823
vt 0.261405 0.710545
vt 0.180351 0.697559
vt 0.326610 0.693222
vt 0.757551 0.757729
vt 0.807804 0.774452
vt 0.772460 0.823576
vt 0.797567 0.864651
vt 0.733238 0.824126
vt 0.749740 0.866063
vt 0.760982 0.902179
vt 0.719401 0.865638
vt 0.684552 0.902397
vt 0.639387 0.884500
vt 0.660808 0.813117
vt 0.623903 0.794270
vt 0.713219 0.813773
vt 0.665483 0.757729
vt 0.712305 0.885456
vt 0.556321 0.827216
vt 0.501119 0.845325
vt 0.545219 0.757729
vt 0.555026 0.904244
vt 0.591462 0.767315
vt 0.615954 0.836277
vt 0.470749 0.757729
vt 0.419425 0.847191
vt 0.372488 0.767183
vt 0.494758 0.844895
vt 0.445539 0.911807
vt 0.361434 0.125903
vt 0.365969 0.307364
vt 0.290632 0.242832
vt 0.301791 0.145287
vt 0.457191 0.173662
vt 0.423671 0.109665
vt 0.376177 0.386781
vt 0.295938 0.358832
vt 0.299747 0.075713
vt 0.375020 0.001881
vt 0.460172 0.363140
vt 0.499631 0.257897
vt 0.457394 0.043622
vt 0.547103 0.099579
vt 0.444557 0.394947
vt 0.578067 0.214062
vt 0.621594 0.323014
vt 0.590883 0.379210
vt 0.632739 0.116079
vt 0.632562 0.182957
vt 0.554301 0.015468
vt 0.619577 0.040425
vt 0.578298 0.707168
vt 0.462651 0.660532
vt 0.573053 0.618193
vt 0.636878 0.665761
vt 0.454743 0.753737
vt 0.509566 0.738117
vt 0.405042 0.565412
vt 0.485785 0.535471
vt 0.638356 0.528920
vt 0.705923 0.611610
vt 0.724011 0.675671
vt 0.406827 0.523265
vt 0.502743 0.497560
vt 0.723768 0.467368
vt 0.740821 0.540151
vt 0.474861 0.431207
vt 0.531499 0.455271
vt 0.615023 0.416837
vt 0.686814 0.427969
vt 0.421147 0.410932
vt 0.450259 0.398938
vt 0.940317 0.732009
vt 0.943278 0.798406
vt 0.888960 0.749688
vt 0.918987 0.839918
vt 0.849453 0.859736
vt 0.814900 0.788054
vt 0.881520 0.769537
vt 0.859403 0.732009
vt 0.255304 0.780676
vt 0.298671 0.872598
vt 0.211504 0.902343
vt 0.324267 0.770070
vt 0.187337 0.820135
vt 0.365582 0.812805
vt 0.333853 0.714537
vt 0.033722 0.714537
vt 0.121318 0.756576
vt 0.047439 0.795606
vt 0.146616 0.879464
vt 0.001992 0.812806
vt 0.180237 0.820135
vt 0.066608 0.917166
vt 0.095524 0.201084
vt 0.150187 0.299379
vt 0.037486 0.325621
vt 0.038138 0.270799
vt 0.218239 0.128391
vt 0.150084 0.084086
vt 0.001992 0.202067
vt 0.035215 0.056354
vt 0.260402 0.295509
vt 0.282690 0.197965
vt 0.147083 0.001881
vt 0.274951 0.054558
vt 0.157278 0.372023
vt 0.244216 0.411509
vt 0.794729 0.728018
vt 0.785707 0.671822
vt 0.872916 0.655348
vt 0.833065 0.685435
vt 0.839760 0.574270
vt 0.877558 0.626236
vt 0.746957 0.562870
vt 0.793583 0.531765
vt 0.898300 0.495071
vt 0.932321 0.601634
vt 0.802319 0.464887
vt 0.998008 0.461472
vt 0.993583 0.544996
vt 0.906300 0.371303
vt 0.825245 0.389233
vt 0.971504 0.389681
vt 0.909665 0.913981
vt 0.850149 0.891481
vt 0.887113 0.863728
vt 0.858308 0.936646
vt 0.998008 0.900865
vt 0.915800 0.942171
vt 0.938679 0.843909
vn 0.206080 0.260169 -0.943315
vn 0.088614 -0.048677 -0.994876
vn 0.219960 0.264403 -0.938993
vn 0.236148 0.291029 -0.927112
vn -0.024269 0.825084 -0.564488
vn -0.206994 0.973363 -0.098584
vn -0.077048 0.960885 -0.266016
vn -0.024269 0.825084 -0.564488
vn 0.295204 0.394594 -0.870144
vn 0.318756 0.511632 -0.797890
vn -0.628507 0.429412 -0.648525
vn -0.557416 0.344796 -0.755250
vn -0.526146 0.437023 -0.729508
vn -0.555176 0.451825 -0.698308
vn -0.506020 0.487407 -0.711602
vn -0.582799 0.485575 -0.651585
vn -0.665712 0.477556 -0.573382
vn -0.050074 -0.240217 -0.969427
vn 0.046590 -0.203197 -0.978029
vn -0.050074 -0.240217 -0.969427
vn -0.101167 -0.888136 -0.448307
vn -0.147903 -0.948930 -0.278668
vn -0.361659 -0.830507 -0.423629
vn -0.279039 -0.805881 -0.522201
vn -0.859581 0.030469 -0.510090
vn -0.859581 0.030469 -0.510090
vn -0.859581 0.030469 -0.510090
vn -0.859581 0.030469 -0.510090
vn 0.113409 -0.016594 -0.993410
vn 0.099275 -0.182011 -0.978272
vn 0.420798 -0.549922 -0.721468
vn 0.390251 -0.692270 -0.607014
vn 0.149348 -0.914856 -0.375146
vn 0.122842 -0.857638 -0.499366
vn 0.223234 0.348684 -0.910267
vn 0.271094 0.475941 -0.836653
vn 0.463611 -0.406271 -0.787407
vn 0.463610 -0.406271 -0.787407
vn 0.443545 0.680419 -0.583350
vn 0.443545 0.680419 -0.583350
vn -0.010119 0.988401 0.151529
vn 0.010139 0.984830 0.173224
vn 0.162771 0.923618 0.347038
vn 0.170857 0.923188 0.344286
vn -0.341739 0.938655 0.046270
vn -0.534946 0.844798 -0.012209
vn -0.534946 0.844798 -0.012209
vn -0.971834 0.235382 -0.011600
vn -0.982715 0.176225 0.056711
vn -0.894427 0.326370 0.305751
vn -0.971834 0.235382 -0.011600
vn -0.585532 0.546475 0.598763
vn -0.610441 0.572133 0.547745
vn -0.731955 0.445828 0.515247
vn -0.951407 0.230837 0.203810
vn -0.998531 0.043385 0.032453
vn -0.998531 0.043385 0.032453
vn -0.459116 -0.841203 -0.285641
vn -0.459116 -0.841203 -0.285641
vn -0.214310 -0.958899 0.185969
vn -0.242619 -0.928842 0.279979
vn -0.446687 -0.842805 0.300251
vn -0.446687 -0.842805 0.300251
vn 0.040584 -0.999161 -0.005429
vn 0.140219 -0.985194 -0.098652
vn 0.425405 -0.901706 0.077183
vn 0.242466 -0.916934 0.316926
vn 0.837480 -0.541932 0.070265
vn 0.842699 -0.538208 0.013841
vn 0.899176 -0.426975 -0.095784
vn 0.899176 -0.426975 -0.095784
vn 0.853946 0.519149 0.035501
vn 0.892700 0.450446 -0.013601
vn 0.906699 0.420053 -0.038120
vn 0.918844 0.394313 -0.015588
vn 0.984794 0.133284 -0.111428
vn 0.984794 0.133284 -0.111428
vn 0.926562 0.369995 -0.067727
vn 0.854808 0.516533 -0.049977
vn 0.322633 0.879487 0.349872
vn 0.328953 0.875424 0.354151
vn 0.780844 0.623755 -0.034808
vn 0.780845 0.623755 -0.034808
vn -0.026548 0.980915 0.192618
vn -0.382424 0.632145 0.673902
vn -0.414630 0.714211 0.563901
vn 0.064986 0.939207 0.337144
vn -0.868502 0.334449 0.365854
vn -0.448294 -0.055675 0.892151
vn -0.156959 -0.300908 0.940648
vn -0.082078 -0.206967 0.974899
vn -0.448294 -0.055675 0.892151
vn -0.642507 0.475030 0.601275
vn -0.083024 -0.984953 0.151575
vn -0.028355 -0.908780 0.416310
vn 0.705824 -0.676334 0.210678
vn 0.770610 -0.481608 0.417389
vn 0.659617 -0.626263 0.415572
vn 0.619931 0.378991 0.687059
vn 0.619931 0.378991 0.687059
vn 0.619931 0.378991 0.687059
vn 0.619931 0.378991 0.687059
vn 0.124062 0.919443 0.373141
vn 0.317309 0.882847 0.346259
vn -0.092072 0.137081 0.986272
vn -0.038392 0.119956 0.992037
vn 0.001996 0.031930 0.999488
vn -0.000168 0.067190 0.997740
vn -0.036788 0.922525 0.384180
vn -0.229993 0.444111 0.865950
vn -0.286996 0.407143 0.867103
vn -0.390093 0.593114 0.704304
vn 0.025426 -0.100994 0.994562
vn 0.062694 -0.002629 0.998029
vn 0.070639 -0.690818 0.719570
vn 0.263079 -0.809433 0.524984
vn -0.000969 0.046356 0.998925
vn -0.008740 0.120688 0.992652
vn 0.392378 -0.784514 0.480186
vn 0.723238 -0.389169 0.570503
vn 0.723238 -0.389169 0.570503
vn 0.004072 -0.001980 0.999990
vn 0.812499 0.476417 -0.335964
vn 0.801954 0.518323 -0.297004
vn 0.785682 0.566379 -0.248835
vn 0.143146 0.369742 -0.918041
vn 0.143146 0.369742 -0.918041
vn 0.143146 0.369742 -0.918041
vn -0.142902 -0.386808 -0.911021
vn -0.142902 -0.386808 -0.911021
vn -0.142902 -0.386808 -0.911021
vn 0.278755 -0.897726 -0.341151
vn 0.207049 -0.942397 -0.262714
vn 0.245831 -0.920012 -0.305196
vn 0.914751 -0.364503 -0.174263
vn 0.916569 -0.365067 -0.163178
vn 0.916660 -0.365095 -0.162608
vn 0.767506 0.607757 -0.203880
vn -0.503870 0.825772 -0.253408
vn -0.503870 0.825772 -0.253408
vn -0.503870 0.825772 -0.253408
vn -0.926350 -0.270993 -0.261609
vn -0.926350 -0.270993 -0.261609
vn -0.926350 -0.270993 -0.261609
vn 0.169202 -0.960455 -0.221127
vn 0.919651 -0.365995 -0.142440
vn 0.981887 0.137468 0.130389
vn 0.920058 0.136051 0.367401
vn 0.905435 0.135095 0.402414
vn 0.148794 0.987098 0.059136
vn 0.148794 0.987098 0.059136
vn 0.148794 0.987098 0.059136
vn -0.926614 0.364415 -0.092673
vn -0.926614 0.364415 -0.092673
vn -0.926614 0.364415 -0.092673
vn -0.556672 -0.829625 0.042885
vn -0.556672 -0.829625 0.042885
vn -0.556672 -0.829625 0.042885
vn 0.625963 -0.772214 0.108888
vn 0.625963 -0.772214 0.108888
vn 0.625963 -0.772213 0.108888
vn 0.796155 0.125816 0.591868
vn -0.065272 0.733479 0.676571
vn -0.065272 0.733479 0.676571
vn -0.065272 0.733479 0.676571
vn -0.636033 0.260030 0.726531
vn -0.636033 0.260030 0.726531
vn -0.636033 0.260031 0.726531
vn -0.545541 -0.485705 0.682991
vn -0.545541 -0.485705 0.682991
vn -0.545541 -0.485705 0.682991
vn 0.503051 -0.627686 0.594096
vn 0.503051 -0.627686 0.594096
vn 0.503051 -0.627686 0.594096
vn 0.660013 0.327035 0.676337
vn 0.683485 0.212752 0.698273
vn 0.791708 0.085377 0.604904
vn 0.141800 0.694761 0.705124
vn 0.141800 0.694761 0.705124
vn 0.141800 0.694761 0.705124
vn -0.068520 0.967574 0.243117
vn -0.068520 0.967574 0.243117
vn -0.068520 0.967574 0.243117
vn 0.187535 0.934358 -0.302995
vn 0.236762 0.818873 -0.522868
vn 0.154561 0.903349 -0.400089
vn 0.831278 0.551672 -0.068083
vn 0.751105 0.659364 0.032875
vn 0.746142 0.664682 0.038333
vn 0.776019 -0.000201 0.630710
vn -0.356112 -0.171301 0.918608
vn -0.356112 -0.171301 0.918608
vn -0.356112 -0.171301 0.918608
vn -0.848901 0.506793 -0.150092
vn -0.848901 0.506793 -0.150092
vn -0.848901 0.506793 -0.150092
vn 0.185104 0.792223 -0.581480
vn 0.647695 0.749895 0.134715
vn 0.917273 -0.120253 0.379671
vn 0.171911 -0.627397 0.759486
vn 0.171911 -0.627397 0.759486
vn 0.171911 -0.627397 0.759486
vn -0.924631 -0.243472 0.292879
vn -0.924631 -0.243472 0.292879
vn -0.924631 -0.243472 0.292879
vn -0.554843 0.351237 -0.754176
vn -0.554843 0.351237 -0.754176
vn -0.554843 0.351237 -0.754176
vn 0.384570 0.606153 -0.696193
vn 0.392035 -0.883434 -0.256619
vn 0.150755 -0.979375 -0.134527
vn -0.037775 -0.868587 -0.494096
vn -0.231951 -0.936224 -0.263977
vn -0.339921 -0.805265 -0.485801
vn -0.157932 -0.588417 -0.792984
vn 0.125925 -0.540928 -0.831588
s 1
g StoneSet1 Done
usemtl initialShadingGroup
f 15/126/1 1/127/2 13/128/3 16/129/4
s 2
f 13/87/5 3/84/6 14/83/7 16/88/8
s 1
f 14/132/9 2/133/10 15/126/1 16/129/4
s 3
f 13/14/11 1/15/12 17/5/13 19/6/14
f 17/5/13 4/2/15 18/1/16 19/6/14
f 18/1/16 3/11/17 13/14/11 19/6/14
s 1
f 17/138/18 1/127/2 20/134/19 22/139/20
s 5
f 20/63/21 5/62/22 21/67/23 22/68/24
s off
f 21/12/25 4/2/26 17/5/27 22/13/28
s 1
f 20/134/19 1/127/2 23/130/29 25/135/30
s 5
f 23/69/31 6/70/32 24/61/33 25/64/34
f 24/61/33 5/62/22 20/63/21 25/64/34
s 1
f 23/130/29 1/127/2 15/126/1 27/131/35
f 15/126/1 2/133/10 26/136/36 27/131/35
s 5
f 26/136/37 6/137/32 23/130/31 27/131/38
s 1
f 29/92/39 2/93/10 14/83/9 30/86/40
s 2
f 14/83/7 3/84/6 28/85/41 30/86/42
f 28/85/41 8/91/43 29/92/44 30/86/42
f 32/10/45 3/11/6 18/1/46 33/4/47
s 5
f 18/1/48 4/2/49 31/3/50 33/4/51
f 31/3/50 9/9/52 32/10/53 33/4/54
f 35/7/55 4/2/49 21/12/56 36/16/57
f 21/67/23 5/62/22 34/71/58 36/75/59
f 34/71/60 10/77/61 35/78/62 36/75/63
f 38/65/64 5/62/22 24/61/33 39/66/65
f 24/61/33 6/70/32 37/73/66 39/66/65
f 37/73/66 11/74/67 38/65/64 39/66/65
f 41/18/68 6/19/69 26/20/70 42/21/71
s 11
f 26/20/72 2/24/73 40/25/74 42/21/75
f 40/25/74 7/26/76 41/18/77 42/21/75
f 40/25/74 2/24/73 29/29/78 44/30/79
s 2
f 29/92/44 8/91/43 43/96/80 44/97/81
s 11
f 43/31/82 7/26/83 40/25/74 44/30/79
s 2
f 28/85/41 3/84/6 32/89/45 46/90/84
s 5
f 32/89/53 9/94/52 45/95/85 46/90/86
s 2
f 45/95/87 8/91/43 28/85/41 46/90/84
s 5
f 31/3/50 4/2/49 35/7/55 48/8/88
f 35/140/89 10/141/90 47/142/91 48/143/92
f 47/17/93 9/9/52 31/3/50 48/8/88
f 34/71/60 5/62/22 38/65/64 50/72/94
f 38/65/64 11/74/67 49/76/95 50/72/94
f 49/76/95 10/77/61 34/71/60 50/72/94
f 37/22/66 6/19/69 41/18/68 52/23/96
f 41/18/68 7/26/97 51/27/98 52/23/96
f 51/27/98 11/28/67 37/22/66 52/23/96
s off
f 54/32/99 7/26/100 43/31/101 55/34/102
s 2
f 43/96/80 8/91/43 53/100/103 55/101/104
s 5
f 53/151/105 12/148/106 54/153/107 55/155/108
s 2
f 53/100/103 8/91/43 45/95/87 57/99/109
s 5
f 45/95/85 9/94/52 56/98/110 57/99/111
f 56/149/110 12/148/106 53/151/105 57/152/111
f 56/98/110 9/94/52 47/102/93 59/103/112
f 47/142/91 10/141/90 58/144/113 59/145/114
f 58/144/113 12/148/106 56/149/110 59/145/114
f 58/144/113 10/141/90 49/146/95 61/147/115
f 49/76/95 11/74/67 60/79/116 61/80/115
f 60/150/117 12/148/106 58/144/113 61/147/118
f 60/79/116 11/74/67 51/81/98 62/82/119
f 51/27/98 7/26/97 54/32/120 62/33/121
f 54/153/107 12/148/106 60/150/117 62/154/122
s 14
f 63/35/123 65/36/124 64/37/125
s off
f 63/156/126 66/157/127 65/158/128
f 63/156/129 67/159/130 66/157/131
s 15
f 63/104/132 68/105/133 67/106/134
s 16
f 63/35/135 64/37/136 68/39/137
s 14
f 64/37/125 65/36/124 70/38/138
s off
f 65/49/139 66/43/140 71/47/141
f 66/43/142 67/44/143 72/45/144
s 15
f 67/106/134 68/105/133 73/107/145
s 16
f 68/39/137 64/37/136 69/40/146
s 17
f 64/37/147 70/38/148 69/40/149
s off
f 65/108/150 71/109/151 70/110/152
f 66/43/153 72/45/154 71/47/155
f 67/44/156 73/46/157 72/45/158
f 68/39/159 69/40/160 73/42/161
s 17
f 69/40/149 70/38/148 74/41/162
s off
f 70/110/163 71/109/164 74/111/165
f 71/47/166 72/45/167 74/48/168
f 72/45/169 73/46/170 74/48/171
f 73/42/172 69/40/173 74/41/174
s 18
f 75/55/175 77/53/176 76/50/177
s off
f 75/112/178 78/114/179 77/116/180
f 75/112/181 79/113/182 78/114/183
s 19
f 75/112/184 80/115/185 79/113/186
s 20
f 75/55/187 76/50/188 80/54/189
s 18
f 76/50/177 77/53/176 82/51/190
s off
f 77/160/191 78/161/192 83/162/193
f 78/56/194 79/59/195 84/57/196
s 19
f 79/113/186 80/115/185 85/117/197
s 20
f 80/54/189 76/50/188 81/52/198
s 18
f 76/50/177 82/51/190 81/52/199
s off
f 77/124/200 83/122/201 82/120/202
f 78/56/203 84/57/204 83/58/205
f 79/59/206 85/60/207 84/57/208
s 19
f 80/115/185 81/118/209 85/117/197
s 21
f 81/119/210 82/120/211 86/121/212
f 82/120/211 83/122/213 86/121/212
f 83/122/213 84/125/214 86/121/212
f 84/125/214 85/123/215 86/121/212
f 85/123/215 81/119/216 86/121/212
